<svg width="1053" height="183" viewBox="0 0 1053 183" fill="none" xmlns="http://www.w3.org/2000/svg">
<mask id="mask0" style="mask-type:alpha" maskUnits="userSpaceOnUse" x="0" y="0" width="1053" height="178">
<path fill-rule="evenodd" clip-rule="evenodd" d="M1053 12C1053 5.37258 1047.63 0 1041 0H12C5.37258 0 0 5.37258 0 12V79C0 85.6274 5.37258 91 12 91H67C73.6274 91 79 96.3726 79 103V166C79 172.627 84.3726 178 91 178H962C968.627 178 974 172.627 974 166V103C974 96.3726 979.373 91 986 91H1041C1047.63 91 1053 85.6274 1053 79V12Z" fill="#C4C4C4"/>
</mask>
<g mask="url(#mask0)">
<rect x="-128" y="670" width="1209" height="1259" rx="604.5" transform="rotate(-90 -128 670)" fill="url(#paint0_angular)"/>
</g>
<path d="M36.4976 60.3L60.9176 28.92V23.16H29.7776V28.92H52.8176L28.2776 60.3V66H60.8576V60.3H36.4976ZM86.7209 56.04C85.9409 58.32 83.7809 61.8 78.3209 61.8C73.0409 61.8 69.8009 57.42 69.6209 51.66H93.0809C93.9209 40.32 87.4409 33.66 78.2609 33.66C69.2009 33.66 63.3809 40.26 63.3809 50.28C63.3809 60.12 69.3809 66.78 78.3209 66.78C87.6209 66.78 91.4609 61.38 92.9009 56.82L86.7209 56.04ZM78.2609 38.58C83.6609 38.58 86.4209 42.6 86.9009 46.98H69.7409C70.2209 42.6 72.9209 38.58 78.2609 38.58ZM103.092 34.38H97.272V66H103.392V49.2C103.392 42.12 107.232 39.6 112.452 39.6C113.592 39.6 114.732 39.72 115.512 39.84V33.96C114.792 33.78 113.712 33.66 112.752 33.66C108.192 33.66 104.892 36.12 103.332 39.18H103.092V34.38ZM132.941 33.66C123.581 33.66 117.581 40.2 117.581 50.22C117.581 60.18 123.581 66.72 132.941 66.72C142.181 66.72 148.241 60.18 148.241 50.22C148.241 40.2 142.181 33.66 132.941 33.66ZM132.941 61.8C127.301 61.8 123.821 57.36 123.821 50.22C123.821 43.02 127.301 38.58 132.941 38.58C138.461 38.58 142.001 43.02 142.001 50.22C142.001 57.36 138.461 61.8 132.941 61.8ZM163.894 22.56V29.22H170.074V22.56H163.894ZM163.954 34.38V66H170.074V34.38H163.954ZM200.1 42.66C199.26 37.86 194.04 33.66 187.14 33.66C179.76 33.66 174.6 37.56 174.6 42.96C174.6 49.56 179.76 51.24 184.68 52.08L187.86 52.62C191.7 53.28 194.52 54.18 194.52 57.06C194.52 60.24 191.58 62.16 187.5 62.16C183 62.16 179.82 60.18 178.8 55.68L173.22 56.88C174.24 62.64 179.28 66.72 187.38 66.72C194.94 66.72 200.76 63.42 200.76 56.88C200.76 50.1 195.6 48.42 190.14 47.46L187.02 46.98C183.66 46.38 180.9 45.72 180.9 42.9C180.9 39.96 183.36 38.34 187.08 38.34C190.44 38.34 193.62 40.08 194.52 43.8L200.1 42.66ZM242.979 66C242.199 64.56 242.139 62.76 242.139 59.22V43.32C242.139 37.98 238.779 33.66 229.599 33.66C222.819 33.66 217.539 37.02 216.159 42.72L221.739 43.98C222.879 40.26 226.119 38.64 229.359 38.64C234.159 38.64 236.019 40.62 236.019 43.44C236.019 45.42 234.459 46.5 228.399 47.1C219.939 47.94 214.899 50.46 214.899 57.3C214.899 63.12 219.699 66.72 225.399 66.72C229.179 66.72 233.919 65.34 236.079 61.8C236.079 63.9 236.559 65.52 237.039 66H242.979ZM236.019 53.52C236.019 59.58 230.739 61.92 226.599 61.92C223.239 61.92 221.199 60.3 221.199 57.3C221.199 53.76 224.439 52.2 227.739 51.78C231.279 51.36 234.999 50.82 236.019 49.74V53.52ZM287.026 34.38H281.206V38.04H280.966C279.286 35.28 275.806 33.66 271.426 33.66C263.206 33.66 257.386 39.78 257.386 49.02C257.386 58.26 263.206 64.32 271.426 64.32C275.686 64.32 278.986 62.76 280.666 60.36H280.906V63.54C280.906 70.08 277.726 72.78 272.266 72.78C267.946 72.78 264.946 71.16 263.746 66.54L257.866 67.74C259.846 74.88 265.486 77.76 272.266 77.76C280.486 77.76 287.026 73.92 287.026 63.84V34.38ZM272.506 59.52C267.046 59.52 263.626 55.2 263.626 49.02C263.626 42.84 267.046 38.58 272.506 38.58C277.846 38.58 281.326 42.84 281.326 49.02C281.326 55.2 277.846 59.52 272.506 59.52ZM291.982 22.56V66H298.102V22.56H291.982ZM317.688 33.66C308.328 33.66 302.328 40.2 302.328 50.22C302.328 60.18 308.328 66.72 317.688 66.72C326.928 66.72 332.988 60.18 332.988 50.22C332.988 40.2 326.928 33.66 317.688 33.66ZM317.688 61.8C312.048 61.8 308.568 57.36 308.568 50.22C308.568 43.02 312.048 38.58 317.688 38.58C323.208 38.58 326.748 43.02 326.748 50.22C326.748 57.36 323.208 61.8 317.688 61.8ZM353.055 33.66C348.615 33.66 345.195 35.4 343.515 38.04H343.275V22.56H337.155V66H342.975V61.92H343.215C344.895 64.86 348.495 66.78 353.055 66.78C361.395 66.78 367.395 60.18 367.395 50.22C367.395 40.26 361.395 33.66 353.055 33.66ZM351.975 61.8C346.455 61.8 342.855 57.36 342.855 50.22C342.855 43.02 346.455 38.58 351.975 38.58C357.615 38.58 361.155 43.02 361.155 50.22C361.155 57.36 357.615 61.8 351.975 61.8ZM398.369 66C397.589 64.56 397.529 62.76 397.529 59.22V43.32C397.529 37.98 394.169 33.66 384.989 33.66C378.209 33.66 372.929 37.02 371.549 42.72L377.129 43.98C378.269 40.26 381.509 38.64 384.749 38.64C389.549 38.64 391.409 40.62 391.409 43.44C391.409 45.42 389.849 46.5 383.789 47.1C375.329 47.94 370.289 50.46 370.289 57.3C370.289 63.12 375.089 66.72 380.789 66.72C384.569 66.72 389.309 65.34 391.469 61.8C391.469 63.9 391.949 65.52 392.429 66H398.369ZM391.409 53.52C391.409 59.58 386.129 61.92 381.989 61.92C378.629 61.92 376.589 60.3 376.589 57.3C376.589 53.76 379.829 52.2 383.129 51.78C386.669 51.36 390.389 50.82 391.409 49.74V53.52ZM402.431 22.56V66H408.551V22.56H402.431ZM441.063 66.72C449.403 66.72 455.403 60.18 455.403 50.22C455.403 40.26 449.403 33.66 441.063 33.66C436.503 33.66 432.963 35.4 431.223 38.46H430.983V34.38H425.163V77.1H431.283V62.34H431.523C433.263 65.1 436.623 66.78 441.063 66.78V66.72ZM439.983 38.58C445.623 38.58 449.163 43.02 449.163 50.22C449.163 57.36 445.623 61.8 439.983 61.8C434.463 61.8 430.863 57.36 430.863 50.22C430.863 43.02 434.463 38.58 439.983 38.58ZM459.677 22.56V66H465.797V22.56H459.677ZM497.803 66C497.023 64.56 496.963 62.76 496.963 59.22V43.32C496.963 37.98 493.603 33.66 484.423 33.66C477.643 33.66 472.363 37.02 470.983 42.72L476.563 43.98C477.703 40.26 480.943 38.64 484.183 38.64C488.983 38.64 490.843 40.62 490.843 43.44C490.843 45.42 489.283 46.5 483.223 47.1C474.763 47.94 469.723 50.46 469.723 57.3C469.723 63.12 474.523 66.72 480.223 66.72C484.003 66.72 488.743 65.34 490.903 61.8C490.903 63.9 491.383 65.52 491.863 66H497.803ZM490.843 53.52C490.843 59.58 485.563 61.92 481.423 61.92C478.063 61.92 476.023 60.3 476.023 57.3C476.023 53.76 479.263 52.2 482.563 51.78C486.103 51.36 489.823 50.82 490.843 49.74V53.52ZM514.585 60.84C512.185 60.84 511.045 60.48 511.045 57.54V38.94H517.945V34.38H511.045V25.38H504.925V34.38H499.705V38.94H504.925V59.16C504.925 64.8 507.505 66.12 513.085 66.12C514.645 66.12 516.925 66.06 517.585 66V60.78C516.745 60.84 515.305 60.84 514.585 60.84ZM534.451 27C535.711 27 537.511 27.12 538.471 27.24V22.26C537.511 22.08 535.471 21.9 533.491 21.9C528.271 21.9 524.671 24 524.671 30.06V34.38H519.451V38.94H524.671V66.06H530.791V38.94H537.691V34.38H530.791V30.66C530.791 27.42 532.531 27 534.451 27ZM553.996 33.66C544.636 33.66 538.636 40.2 538.636 50.22C538.636 60.18 544.636 66.72 553.996 66.72C563.236 66.72 569.296 60.18 569.296 50.22C569.296 40.2 563.236 33.66 553.996 33.66ZM553.996 61.8C548.356 61.8 544.876 57.36 544.876 50.22C544.876 43.02 548.356 38.58 553.996 38.58C559.516 38.58 563.056 43.02 563.056 50.22C563.056 57.36 559.516 61.8 553.996 61.8ZM579.283 34.38H573.463V66H579.583V49.2C579.583 42.12 583.423 39.6 588.643 39.6C589.783 39.6 590.923 39.72 591.703 39.84V33.96C590.983 33.78 589.903 33.66 588.943 33.66C584.383 33.66 581.083 36.12 579.523 39.18H579.283V34.38ZM630.009 33.66C625.329 33.66 622.209 35.4 619.389 38.82C617.469 35.22 613.809 33.66 610.209 33.66C606.669 33.66 603.369 35.1 600.969 38.58H600.729V34.38H594.909V66H601.029V48.6C601.029 42.12 604.509 38.76 608.229 38.76C612.309 38.76 614.649 40.92 614.649 46.86V66H620.769V48.6C620.769 42.12 624.309 38.76 627.969 38.76C632.109 38.76 634.449 40.92 634.449 46.86V66H640.569V45C640.569 37.02 635.289 33.66 630.009 33.66ZM653.216 58.56H645.776V66H649.196C649.196 69.54 648.236 71.04 646.016 71.16V74.46C650.936 74.4 653.216 70.68 653.216 64.56V58.56ZM696.846 66C696.066 64.56 696.006 62.76 696.006 59.22V43.32C696.006 37.98 692.646 33.66 683.466 33.66C676.686 33.66 671.406 37.02 670.026 42.72L675.606 43.98C676.746 40.26 679.986 38.64 683.226 38.64C688.026 38.64 689.886 40.62 689.886 43.44C689.886 45.42 688.326 46.5 682.266 47.1C673.806 47.94 668.766 50.46 668.766 57.3C668.766 63.12 673.566 66.72 679.266 66.72C683.046 66.72 687.786 65.34 689.946 61.8C689.946 63.9 690.426 65.52 690.906 66H696.846ZM689.886 53.52C689.886 59.58 684.606 61.92 680.466 61.92C677.106 61.92 675.066 60.3 675.066 57.3C675.066 53.76 678.306 52.2 681.606 51.78C685.146 51.36 688.866 50.82 689.886 49.74V53.52ZM706.608 38.52V34.38H700.788V66H706.908V48.6C706.908 42.12 710.748 38.76 714.768 38.76C719.328 38.76 721.788 40.92 721.788 46.86V66H727.908V45C727.908 37.02 722.448 33.66 716.688 33.66C712.788 33.66 709.248 35.04 706.848 38.52H706.608ZM746.101 33.66C737.701 33.66 731.761 40.2 731.761 50.22C731.761 60.18 737.701 66.72 746.101 66.72C750.601 66.72 754.261 64.86 755.941 61.92H756.181V66H762.001V22.56H755.881V38.04H755.641C753.961 35.4 750.481 33.66 746.101 33.66ZM747.181 61.8C741.541 61.8 738.001 57.36 738.001 50.22C738.001 43.02 741.541 38.58 747.181 38.58C752.701 38.58 756.301 43.02 756.301 50.22C756.301 57.36 752.701 61.8 747.181 61.8ZM778.367 22.56V29.22H784.547V22.56H778.367ZM778.427 34.38V66H784.547V34.38H778.427ZM814.573 42.66C813.733 37.86 808.513 33.66 801.613 33.66C794.233 33.66 789.073 37.56 789.073 42.96C789.073 49.56 794.233 51.24 799.153 52.08L802.333 52.62C806.173 53.28 808.993 54.18 808.993 57.06C808.993 60.24 806.053 62.16 801.973 62.16C797.473 62.16 794.293 60.18 793.273 55.68L787.693 56.88C788.713 62.64 793.753 66.72 801.853 66.72C809.413 66.72 815.233 63.42 815.233 56.88C815.233 50.1 810.073 48.42 804.613 47.46L801.493 46.98C798.133 46.38 795.373 45.72 795.373 42.9C795.373 39.96 797.833 38.34 801.553 38.34C804.913 38.34 808.093 40.08 808.993 43.8L814.573 42.66ZM836.451 38.52V34.38H830.631V66H836.751V48.6C836.751 42.12 840.591 38.76 844.611 38.76C849.171 38.76 851.631 40.92 851.631 46.86V66H857.751V45C857.751 37.02 852.291 33.66 846.531 33.66C842.631 33.66 839.091 35.04 836.691 38.52H836.451ZM889.385 66C888.605 64.56 888.545 62.76 888.545 59.22V43.32C888.545 37.98 885.185 33.66 876.005 33.66C869.225 33.66 863.945 37.02 862.565 42.72L868.145 43.98C869.285 40.26 872.525 38.64 875.765 38.64C880.565 38.64 882.425 40.62 882.425 43.44C882.425 45.42 880.865 46.5 874.805 47.1C866.345 47.94 861.305 50.46 861.305 57.3C861.305 63.12 866.105 66.72 871.805 66.72C875.585 66.72 880.325 65.34 882.485 61.8C882.485 63.9 882.965 65.52 883.445 66H889.385ZM882.425 53.52C882.425 59.58 877.145 61.92 873.005 61.92C869.645 61.92 867.605 60.3 867.605 57.3C867.605 53.76 870.845 52.2 874.145 51.78C877.685 51.36 881.405 50.82 882.425 49.74V53.52ZM906.167 60.84C903.767 60.84 902.627 60.48 902.627 57.54V38.94H909.527V34.38H902.627V25.38H896.507V34.38H891.287V38.94H896.507V59.16C896.507 64.8 899.087 66.12 904.667 66.12C906.227 66.12 908.507 66.06 909.167 66V60.78C908.327 60.84 906.887 60.84 906.167 60.84ZM913.133 22.56V29.22H919.313V22.56H913.133ZM913.193 34.38V66H919.313V34.38H913.193ZM940.759 66L952.699 34.38H946.159L937.459 59.04H937.219L928.699 34.38H921.979L933.739 66H940.759ZM975.764 56.04C974.984 58.32 972.824 61.8 967.364 61.8C962.084 61.8 958.844 57.42 958.664 51.66H982.124C982.964 40.32 976.484 33.66 967.304 33.66C958.244 33.66 952.424 40.26 952.424 50.28C952.424 60.12 958.424 66.78 967.364 66.78C976.664 66.78 980.504 61.38 981.944 56.82L975.764 56.04ZM967.304 38.58C972.704 38.58 975.464 42.6 975.944 46.98H958.784C959.264 42.6 961.964 38.58 967.304 38.58ZM986.435 22.56V66H992.555V22.56H986.435ZM1025.94 34.38H1019.4L1011 58.38H1010.76L1001.82 34.38H995.221L1007.94 65.64L1007.4 66.78C1005.66 71.04 1004.46 72.48 1001.22 72.48C999.421 72.48 998.761 72.3 998.281 72.24V77.58C999.121 77.7 1000.32 77.76 1002.06 77.76C1006.8 77.76 1010.1 76.32 1014 66L1025.94 34.38ZM125.154 118.66C120.714 118.66 117.294 120.4 115.614 123.04H115.374V107.56H109.254V151H115.074V146.92H115.314C116.994 149.86 120.594 151.78 125.154 151.78C133.494 151.78 139.494 145.18 139.494 135.22C139.494 125.26 133.494 118.66 125.154 118.66ZM124.074 146.8C118.554 146.8 114.954 142.36 114.954 135.22C114.954 128.02 118.554 123.58 124.074 123.58C129.714 123.58 133.254 128.02 133.254 135.22C133.254 142.36 129.714 146.8 124.074 146.8ZM164.949 146.86V151H170.769V119.38H164.649V136.78C164.649 143.26 160.749 146.62 156.729 146.62C152.229 146.62 149.769 144.46 149.769 138.52V119.38H143.589V140.38C143.589 148.36 149.109 151.78 154.809 151.78C158.709 151.78 162.249 150.4 164.709 146.86H164.949ZM175.643 107.56V114.22H181.823V107.56H175.643ZM175.703 119.38V151H181.823V119.38H175.703ZM187.128 107.56V151H193.248V107.56H187.128ZM211.274 145.84C208.874 145.84 207.734 145.48 207.734 142.54V123.94H214.634V119.38H207.734V110.38H201.614V119.38H196.394V123.94H201.614V144.16C201.614 149.8 204.194 151.12 209.774 151.12C211.334 151.12 213.614 151.06 214.274 151V145.78C213.434 145.84 211.994 145.84 211.274 145.84ZM275.386 119.38H268.846L261.886 143.62H261.646L254.866 119.38H247.786L241.006 143.62H240.766L233.806 119.38H227.086L237.406 151H243.946L250.966 127.54H251.206L258.226 151H265.066L275.386 119.38ZM277.947 107.56V114.22H284.127V107.56H277.947ZM278.007 119.38V151H284.127V119.38H278.007ZM302.153 145.84C299.753 145.84 298.613 145.48 298.613 142.54V123.94H305.513V119.38H298.613V110.38H292.493V119.38H287.273V123.94H292.493V144.16C292.493 149.8 295.073 151.12 300.653 151.12C302.213 151.12 304.493 151.06 305.153 151V145.78C304.313 145.84 302.873 145.84 302.153 145.84ZM315.179 123.52V107.56H309.059V151H315.179V134.2C315.179 127.72 319.139 123.76 323.039 123.76C327.599 123.76 330.059 125.92 330.059 131.86V151H336.179V130C336.179 122.02 330.719 118.66 325.139 118.66C321.359 118.66 317.879 120.04 315.419 123.52H315.179ZM365.258 145.84C362.858 145.84 361.718 145.48 361.718 142.54V123.94H368.618V119.38H361.718V110.38H355.598V119.38H350.378V123.94H355.598V144.16C355.598 149.8 358.178 151.12 363.758 151.12C365.318 151.12 367.598 151.06 368.258 151V145.78C367.418 145.84 365.978 145.84 365.258 145.84ZM378.285 123.52V107.56H372.165V151H378.285V134.2C378.285 127.72 382.245 123.76 386.145 123.76C390.705 123.76 393.165 125.92 393.165 131.86V151H399.285V130C399.285 122.02 393.825 118.66 388.245 118.66C384.465 118.66 380.985 120.04 378.525 123.52H378.285ZM426.418 141.04C425.638 143.32 423.478 146.8 418.018 146.8C412.738 146.8 409.498 142.42 409.318 136.66H432.778C433.618 125.32 427.138 118.66 417.958 118.66C408.898 118.66 403.078 125.26 403.078 135.28C403.078 145.12 409.078 151.78 418.018 151.78C427.318 151.78 431.158 146.38 432.598 141.82L426.418 141.04ZM417.958 123.58C423.358 123.58 426.118 127.6 426.598 131.98H409.438C409.918 127.6 412.618 123.58 417.958 123.58ZM448.635 108.16V151H468.195C477.135 151 481.995 146.14 481.995 138.7C481.995 133.42 479.655 130 475.155 128.44V128.2C478.875 126.7 480.555 123.7 480.555 119.86C480.555 112.84 475.935 108.22 467.535 108.22L448.635 108.16ZM455.235 126.34V113.74H466.575C471.315 113.74 473.835 116.02 473.835 120.04C473.835 124.06 471.315 126.34 466.575 126.34H455.235ZM455.235 145.36V131.56H467.295C472.515 131.56 475.275 134.08 475.275 138.46C475.275 142.84 472.515 145.36 467.295 145.36H455.235ZM486.191 107.56V151H492.311V107.56H486.191ZM511.897 118.66C502.537 118.66 496.537 125.2 496.537 135.22C496.537 145.18 502.537 151.72 511.897 151.72C521.137 151.72 527.197 145.18 527.197 135.22C527.197 125.2 521.137 118.66 511.897 118.66ZM511.897 146.8C506.257 146.8 502.777 142.36 502.777 135.22C502.777 128.02 506.257 123.58 511.897 123.58C517.417 123.58 520.957 128.02 520.957 135.22C520.957 142.36 517.417 146.8 511.897 146.8ZM545.344 146.8C540.004 146.8 536.644 142.36 536.644 135.22C536.644 128.02 540.004 123.58 545.344 123.58C550.864 123.58 552.724 127.72 553.384 129.58L559.084 127.66C558.064 124.9 554.524 118.66 545.344 118.66C536.284 118.66 530.344 125.2 530.344 135.22C530.344 145.18 536.284 151.72 545.344 151.72C554.644 151.72 558.544 145.36 559.744 140.92L553.564 139.96C552.904 142.54 550.984 146.8 545.344 146.8ZM569.3 139.18L573.14 135.46L583.94 151H591.26L577.46 131.5L589.88 119.38H582.2L569.3 132.16V107.56H563.18V151H569.3V139.18ZM604.406 146.8C599.066 146.8 595.706 142.36 595.706 135.22C595.706 128.02 599.066 123.58 604.406 123.58C609.926 123.58 611.786 127.72 612.446 129.58L618.146 127.66C617.126 124.9 613.586 118.66 604.406 118.66C595.346 118.66 589.406 125.2 589.406 135.22C589.406 145.18 595.346 151.72 604.406 151.72C613.706 151.72 617.606 145.36 618.806 140.92L612.626 139.96C611.966 142.54 610.046 146.8 604.406 146.8ZM628.363 123.52V107.56H622.243V151H628.363V134.2C628.363 127.72 632.323 123.76 636.223 123.76C640.783 123.76 643.243 125.92 643.243 131.86V151H649.363V130C649.363 122.02 643.903 118.66 638.323 118.66C634.543 118.66 631.063 120.04 628.603 123.52H628.363ZM680.996 151C680.216 149.56 680.156 147.76 680.156 144.22V128.32C680.156 122.98 676.796 118.66 667.616 118.66C660.836 118.66 655.556 122.02 654.176 127.72L659.756 128.98C660.896 125.26 664.136 123.64 667.376 123.64C672.176 123.64 674.036 125.62 674.036 128.44C674.036 130.42 672.476 131.5 666.416 132.1C657.956 132.94 652.916 135.46 652.916 142.3C652.916 148.12 657.716 151.72 663.416 151.72C667.196 151.72 671.936 150.34 674.096 146.8C674.096 148.9 674.576 150.52 675.056 151H680.996ZM674.036 138.52C674.036 144.58 668.756 146.92 664.616 146.92C661.256 146.92 659.216 145.3 659.216 142.3C659.216 138.76 662.456 137.2 665.756 136.78C669.296 136.36 673.016 135.82 674.036 134.74V138.52ZM684.998 107.56V114.22H691.178V107.56H684.998ZM685.058 119.38V151H691.178V119.38H685.058ZM702.184 123.52V119.38H696.364V151H702.484V133.6C702.484 127.12 706.324 123.76 710.344 123.76C714.904 123.76 717.364 125.92 717.364 131.86V151H723.484V130C723.484 122.02 718.024 118.66 712.264 118.66C708.364 118.66 704.824 120.04 702.424 123.52H702.184ZM774.823 118.66C770.143 118.66 767.023 120.4 764.203 123.82C762.283 120.22 758.623 118.66 755.023 118.66C751.483 118.66 748.183 120.1 745.783 123.58H745.543V119.38H739.723V151H745.843V133.6C745.843 127.12 749.323 123.76 753.043 123.76C757.123 123.76 759.463 125.92 759.463 131.86V151H765.583V133.6C765.583 127.12 769.123 123.76 772.783 123.76C776.923 123.76 779.263 125.92 779.263 131.86V151H785.383V130C785.383 122.02 780.103 118.66 774.823 118.66ZM790.291 107.56V114.22H796.471V107.56H790.291ZM790.351 119.38V151H796.471V119.38H790.351ZM807.477 123.52V119.38H801.657V151H807.777V133.6C807.777 127.12 811.617 123.76 815.637 123.76C820.197 123.76 822.657 125.92 822.657 131.86V151H828.777V130C828.777 122.02 823.317 118.66 817.557 118.66C813.657 118.66 810.117 120.04 807.717 123.52H807.477ZM846.97 118.66C838.57 118.66 832.63 125.2 832.63 135.22C832.63 145.18 838.57 151.72 846.97 151.72C851.47 151.72 855.13 149.86 856.81 146.92H857.05V151H862.87V107.56H856.75V123.04H856.51C854.83 120.4 851.35 118.66 846.97 118.66ZM848.05 146.8C842.41 146.8 838.87 142.36 838.87 135.22C838.87 128.02 842.41 123.58 848.05 123.58C853.57 123.58 857.17 128.02 857.17 135.22C857.17 142.36 853.57 146.8 848.05 146.8ZM892.59 127.66C891.75 122.86 886.53 118.66 879.63 118.66C872.25 118.66 867.09 122.56 867.09 127.96C867.09 134.56 872.25 136.24 877.17 137.08L880.35 137.62C884.19 138.28 887.01 139.18 887.01 142.06C887.01 145.24 884.07 147.16 879.99 147.16C875.49 147.16 872.31 145.18 871.29 140.68L865.71 141.88C866.73 147.64 871.77 151.72 879.87 151.72C887.43 151.72 893.25 148.42 893.25 141.88C893.25 135.1 888.09 133.42 882.63 132.46L879.51 131.98C876.15 131.38 873.39 130.72 873.39 127.9C873.39 124.96 875.85 123.34 879.57 123.34C882.93 123.34 886.11 125.08 887.01 128.8L892.59 127.66ZM919.543 141.04C918.763 143.32 916.603 146.8 911.143 146.8C905.863 146.8 902.623 142.42 902.443 136.66H925.903C926.743 125.32 920.263 118.66 911.083 118.66C902.023 118.66 896.203 125.26 896.203 135.28C896.203 145.12 902.203 151.78 911.143 151.78C920.443 151.78 924.283 146.38 925.723 141.82L919.543 141.04ZM911.083 123.58C916.483 123.58 919.243 127.6 919.723 131.98H902.563C903.043 127.6 905.743 123.58 911.083 123.58ZM941.88 145.84C939.48 145.84 938.34 145.48 938.34 142.54V123.94H945.24V119.38H938.34V110.38H932.22V119.38H927V123.94H932.22V144.16C932.22 149.8 934.8 151.12 940.38 151.12C941.94 151.12 944.22 151.06 944.88 151V145.78C944.04 145.84 942.6 145.84 941.88 145.84Z" fill="#452E66"/>
<path d="M227.086 157H946.26V160H227.086V157Z" fill="#452E66"/>
<defs>
<radialGradient id="paint0_angular" cx="0" cy="0" r="1" gradientUnits="userSpaceOnUse" gradientTransform="translate(604.757 1251.36) rotate(90) scale(677.625 1563.71)">
<stop stop-color="#EBB9F2"/>
<stop offset="0.541667" stop-color="#F6AAAA"/>
<stop offset="1" stop-color="#A566FF"/>
</radialGradient>
</defs>
</svg>
