<svg width="124" height="41" viewBox="0 0 124 41" fill="none" xmlns="http://www.w3.org/2000/svg">
<g clip-path="url(#clip0)">
<path d="M53.1424 24.7501H49.8508C49.5315 24.7681 49.2118 24.7205 48.9117 24.6102C48.6115 24.4998 48.3371 24.329 48.1055 24.1084C47.892 23.875 47.7274 23.6012 47.6216 23.303C47.5158 23.0049 47.4709 22.6886 47.4896 22.3728V19.325C47.4604 19.0088 47.5016 18.69 47.6104 18.3916C47.7191 18.0932 47.8926 17.8226 48.1184 17.5993C48.3442 17.376 48.6166 17.2055 48.9162 17.1C49.2157 16.9945 49.5349 16.9568 49.8508 16.9894H51.0988C51.4174 16.9699 51.7366 17.0147 52.0375 17.121C52.3385 17.2274 52.6149 17.3932 52.8505 17.6086C53.0711 17.8402 53.2418 18.1145 53.3522 18.4147C53.4626 18.7149 53.5102 19.0345 53.4921 19.3539V21.2788C53.4975 21.3158 53.4942 21.3536 53.4824 21.3892C53.4706 21.4247 53.4506 21.457 53.4242 21.4835C53.3977 21.51 53.3654 21.5299 53.3298 21.5417C53.2943 21.5535 53.2565 21.5569 53.2194 21.5515H49.1161C49.0038 21.5515 48.9493 21.6028 48.9493 21.7055V22.3471C48.9493 23.0893 49.3193 23.4604 50.0593 23.4604H53.1392C53.1763 23.455 53.2141 23.4583 53.2496 23.4701C53.2852 23.4819 53.3175 23.5019 53.3439 23.5283C53.3704 23.5548 53.3904 23.5871 53.4022 23.6227C53.414 23.6582 53.4173 23.696 53.4119 23.7331V24.4966C53.4151 24.6667 53.3253 24.7501 53.1424 24.7501ZM49.1161 20.5184H51.8431C51.8637 20.5217 51.8847 20.5201 51.9045 20.5137C51.9243 20.5073 51.9423 20.4963 51.957 20.4816C51.9718 20.4669 51.9828 20.4489 51.9892 20.4291C51.9956 20.4092 51.9972 20.3882 51.9939 20.3677V19.4052C52.0211 19.1003 51.9291 18.7967 51.7372 18.5582C51.6219 18.4602 51.4881 18.3862 51.3438 18.3404C51.1994 18.2947 51.0475 18.2782 50.8967 18.2919H50.0786C49.9283 18.2785 49.7769 18.2951 49.6331 18.3408C49.4894 18.3865 49.3561 18.4604 49.2412 18.5582C49.0483 18.7963 48.9551 19.0999 48.9814 19.4052V20.3677C48.9791 20.3866 48.9809 20.4059 48.9866 20.4242C48.9924 20.4424 49.0019 20.4592 49.0147 20.4735C49.0274 20.4877 49.0431 20.4991 49.0606 20.5069C49.0781 20.5146 49.097 20.5186 49.1161 20.5184V20.5184Z" fill="#1B1623"/>
<path d="M56.9058 24.7498H55.9433C55.9082 24.7547 55.8724 24.7513 55.8388 24.74C55.8052 24.7286 55.7747 24.7095 55.7498 24.6843C55.7249 24.659 55.7062 24.6283 55.6952 24.5946C55.6843 24.5608 55.6813 24.525 55.6867 24.4899V17.2362C55.6813 17.2011 55.6843 17.1653 55.6952 17.1315C55.7062 17.0978 55.7249 17.0671 55.7498 17.0418C55.7747 17.0166 55.8052 16.9975 55.8388 16.9862C55.8724 16.9748 55.9082 16.9714 55.9433 16.9763H56.9058C56.941 16.9715 56.9769 16.975 57.0106 16.9863C57.0443 16.9977 57.0749 17.0167 57.1001 17.0419C57.1252 17.067 57.1442 17.0976 57.1556 17.1313C57.167 17.1651 57.1704 17.2009 57.1657 17.2362V17.7848H57.2266C57.4683 17.2544 57.9805 16.9891 58.7634 16.9891H59.4339C59.7452 16.9686 60.0574 17.0124 60.3511 17.1178C60.6447 17.2232 60.9135 17.388 61.1406 17.6019C61.3508 17.8399 61.5115 18.1174 61.6134 18.4181C61.7153 18.7188 61.7564 19.0368 61.7342 19.3536V24.4867C61.7342 24.66 61.6443 24.7466 61.4615 24.7466H60.499C60.4637 24.7514 60.4279 24.7479 60.3942 24.7366C60.3605 24.7252 60.3299 24.7062 60.3047 24.681C60.2795 24.6559 60.2605 24.6253 60.2492 24.5916C60.2378 24.5579 60.2344 24.522 60.2391 24.4867V19.4017C60.2391 18.6489 59.868 18.2724 59.1259 18.2724H58.4201C57.5859 18.2724 57.1721 18.7055 57.1721 19.5557V24.4899C57.1771 24.5258 57.1736 24.5623 57.1619 24.5966C57.1502 24.6309 57.1306 24.6619 57.1046 24.6872C57.0787 24.7125 57.0472 24.7313 57.0127 24.7422C56.9781 24.7531 56.9415 24.7557 56.9058 24.7498V24.7498Z" fill="#1B1623"/>
<path d="M69.5978 24.7502H66.3062C65.9882 24.7823 65.6671 24.7432 65.366 24.6359C65.065 24.5286 64.7915 24.3556 64.5655 24.1296C64.3395 23.9036 64.1666 23.6302 64.0593 23.3292C63.952 23.0281 63.9129 22.707 63.9449 22.389V19.3412C63.9132 19.0237 63.9526 18.7031 64.0602 18.4027C64.1678 18.1023 64.3409 17.8297 64.567 17.6045C64.7931 17.3793 65.0664 17.2073 65.3673 17.101C65.6681 16.9946 65.9888 16.9566 66.3062 16.9896H67.5574C67.8759 16.9706 68.195 17.0156 68.4959 17.122C68.7967 17.2283 69.0732 17.3938 69.3091 17.6087C69.5268 17.8417 69.6946 18.1166 69.8022 18.4167C69.9098 18.7169 69.9549 19.0358 69.9347 19.354V21.2789C69.9395 21.3162 69.9357 21.354 69.9234 21.3895C69.9112 21.425 69.891 21.4572 69.8643 21.4836C69.8376 21.51 69.8051 21.5299 69.7695 21.5417C69.7339 21.5535 69.696 21.5569 69.6588 21.5516H65.5747C65.4624 21.5516 65.4079 21.603 65.4079 21.7056V22.3473C65.4079 23.0894 65.779 23.4605 66.5211 23.4605H69.5978C69.635 23.4553 69.6729 23.4587 69.7085 23.4705C69.7442 23.4823 69.7766 23.5021 69.8033 23.5285C69.83 23.5549 69.8503 23.5871 69.8625 23.6226C69.8747 23.6581 69.8786 23.696 69.8737 23.7332V24.4968C69.8737 24.6668 69.7807 24.7502 69.5978 24.7502ZM65.5747 20.5186H68.3017C68.3224 20.5218 68.3435 20.5201 68.3634 20.5137C68.3833 20.5073 68.4014 20.4963 68.4164 20.4817C68.4313 20.4671 68.4427 20.4491 68.4495 20.4294C68.4563 20.4096 68.4584 20.3885 68.4557 20.3678V19.4053C68.482 19.1 68.3888 18.7964 68.1958 18.5584C68.081 18.4606 67.9477 18.3867 67.804 18.341C67.6602 18.2953 67.5088 18.2786 67.3585 18.2921H66.5211C66.3709 18.2781 66.2193 18.2945 66.0754 18.3402C65.9316 18.3859 65.7984 18.4601 65.6838 18.5584C65.4908 18.7964 65.3977 19.1 65.4239 19.4053V20.3678C65.4206 20.3884 65.4222 20.4094 65.4286 20.4292C65.4351 20.449 65.4461 20.467 65.4608 20.4817C65.4755 20.4965 65.4935 20.5075 65.5133 20.5139C65.5331 20.5203 65.5542 20.5219 65.5747 20.5186V20.5186Z" fill="#1B1623"/>
<path d="M73.3607 24.7497H72.3982C72.3629 24.7545 72.3271 24.751 72.2934 24.7397C72.2597 24.7283 72.229 24.7093 72.2039 24.6841C72.1787 24.659 72.1597 24.6284 72.1484 24.5947C72.137 24.561 72.1335 24.5251 72.1383 24.4898V17.2361C72.1335 17.2008 72.137 17.165 72.1484 17.1312C72.1597 17.0975 72.1787 17.0669 72.2039 17.0418C72.229 17.0166 72.2597 16.9976 72.2934 16.9862C72.3271 16.9749 72.3629 16.9714 72.3982 16.9762H73.3607C73.3959 16.9714 73.4318 16.9749 73.4655 16.9862C73.4992 16.9976 73.5298 17.0166 73.5549 17.0418C73.5801 17.0669 73.5991 17.0975 73.6105 17.1312C73.6218 17.165 73.6253 17.2008 73.6205 17.2361V17.8168H73.6815C73.7966 17.549 74.0053 17.3323 74.2686 17.2072C74.5653 17.0517 74.8961 16.9724 75.231 16.9762H75.7957C75.8309 16.9714 75.8668 16.9749 75.9005 16.9862C75.9342 16.9976 75.9648 17.0166 75.99 17.0418C76.0151 17.0669 76.0341 17.0975 76.0455 17.1312C76.0569 17.165 76.0603 17.2008 76.0556 17.2361V18.0285C76.0556 18.221 75.9689 18.3044 75.7957 18.2723H74.8814C74.0387 18.2723 73.6173 18.7354 73.6173 19.6615V24.4738C73.6248 24.5099 73.6235 24.5473 73.6136 24.5829C73.6037 24.6184 73.5854 24.6511 73.5603 24.6781C73.5351 24.7051 73.5039 24.7257 73.4692 24.7382C73.4344 24.7506 73.3972 24.7546 73.3607 24.7497V24.7497Z" fill="#1B1623"/>
<path d="M80.6146 24.3679H79.9152C79.607 24.3882 79.298 24.3439 79.008 24.2378C78.7179 24.1317 78.4532 23.9662 78.2309 23.7519C77.825 23.2647 77.6238 22.6391 77.6695 22.0066V19.3406C77.6486 19.0226 77.6931 18.7038 77.8002 18.4036C77.9072 18.1035 78.0745 17.8284 78.2918 17.5953C78.5255 17.3847 78.7987 17.2227 79.0956 17.1186C79.3925 17.0145 79.707 16.9705 80.0211 16.989H83.4442C83.6271 16.989 83.7169 17.0756 83.7169 17.2489V24.7785C83.7345 25.0954 83.6866 25.4125 83.5762 25.71C83.4658 26.0075 83.2953 26.2791 83.0753 26.5078C82.84 26.7216 82.5645 26.8864 82.2649 26.9927C81.9652 27.099 81.6475 27.1447 81.33 27.1269H78.4651C78.2918 27.1269 78.2084 27.0435 78.2084 26.8831V26.0907C78.2031 26.0556 78.206 26.0198 78.217 25.9861C78.2279 25.9523 78.2466 25.9216 78.2716 25.8964C78.2965 25.8711 78.327 25.8521 78.3606 25.8407C78.3942 25.8293 78.43 25.8259 78.4651 25.8308H81.1022C81.8444 25.8308 82.2155 25.4544 82.2155 24.7015V23.5434H82.1609C81.8979 24.0952 81.3878 24.3679 80.6146 24.3679ZM82.2187 21.7789V18.4263C82.2187 18.3236 82.1609 18.2723 82.0487 18.2723H80.236C79.5152 18.2723 79.1549 18.6487 79.1549 19.4016V21.9296C79.1549 22.6825 79.5152 23.0589 80.236 23.0589H80.9675C81.7995 23.0589 82.2155 22.6322 82.2155 21.7789H82.2187Z" fill="#1B1623"/>
<path d="M87.0602 27.2172H86.2517C86.2164 27.2219 86.1806 27.2185 86.1469 27.2071C86.1132 27.1957 86.0825 27.1767 86.0574 27.1516C86.0322 27.1264 86.0132 27.0958 86.0019 27.0621C85.9905 27.0284 85.9871 26.9925 85.9918 26.9573V26.1809C85.9918 25.998 86.0784 25.9082 86.2517 25.9082H86.6014C87.2216 25.9082 87.6494 25.7863 87.8847 25.5425C88.1772 25.1947 88.3829 24.7823 88.4846 24.3394H87.875C87.7995 24.3408 87.726 24.3155 87.6673 24.2679C87.6086 24.2204 87.5686 24.1537 87.5542 24.0795L85.5266 17.2364C85.4849 17.0632 85.5523 16.9765 85.7255 16.9765H86.7458C86.8199 16.9736 86.8925 16.9987 86.949 17.0469C87.0055 17.095 87.0417 17.1627 87.0505 17.2364L88.7124 23.2101H88.7733L90.432 17.2364C90.4348 17.1993 90.445 17.1631 90.4619 17.1299C90.4787 17.0967 90.502 17.0672 90.5303 17.0431C90.5587 17.0189 90.5915 17.0006 90.6269 16.9892C90.6623 16.9778 90.6997 16.9735 90.7368 16.9765H91.6992C91.8917 16.9765 91.9751 17.0696 91.9431 17.2525L89.8545 24.58C89.7001 25.3015 89.3719 25.9744 88.8985 26.5402C88.6571 26.7763 88.3686 26.9587 88.0518 27.0754C87.7349 27.1921 87.397 27.2404 87.0602 27.2172Z" fill="#1B1623"/>
<path d="M100.682 24.75H99.3696C99.2969 24.7476 99.2271 24.7206 99.1717 24.6734C99.1163 24.6262 99.0787 24.5616 99.0649 24.4901L97.3132 17.2363C97.2715 17.0631 97.3356 16.9765 97.496 16.9765H98.5933C98.6307 16.9715 98.6687 16.9745 98.705 16.9852C98.7412 16.9959 98.7748 17.014 98.8035 17.0385C98.8322 17.063 98.8555 17.0933 98.8718 17.1274C98.8881 17.1615 98.897 17.1986 98.898 17.2363L100.011 23.0111H100.127L101.468 17.2363C101.472 17.1637 101.505 17.0956 101.559 17.047C101.613 16.9983 101.684 16.973 101.757 16.9765H102.764C102.841 16.9701 102.917 16.9935 102.977 17.0419C103.036 17.0904 103.075 17.16 103.085 17.2363L104.397 23.0111H104.503L105.616 17.2363C105.624 17.1669 105.658 17.1029 105.711 17.0572C105.764 17.0115 105.832 16.9872 105.902 16.9893H106.999C107.172 16.9893 107.233 17.0759 107.182 17.2492L105.43 24.5029C105.427 24.54 105.417 24.5762 105.4 24.6094C105.383 24.6426 105.36 24.6721 105.332 24.6963C105.303 24.7204 105.27 24.7387 105.235 24.7501C105.2 24.7616 105.162 24.7659 105.125 24.7628H103.813C103.739 24.7657 103.666 24.7406 103.61 24.6925C103.553 24.6443 103.517 24.5766 103.508 24.5029L102.289 18.8501H102.183L100.98 24.5029C100.971 24.5744 100.935 24.6398 100.88 24.6857C100.825 24.7316 100.754 24.7546 100.682 24.75Z" fill="#1B1623"/>
<path d="M114.516 24.7498H111.224C110.906 24.7813 110.586 24.7418 110.285 24.6343C109.984 24.5267 109.711 24.3538 109.485 24.1279C109.259 23.9021 109.086 23.6289 108.979 23.3281C108.871 23.0274 108.832 22.7065 108.863 22.3886V19.3408C108.832 19.0234 108.872 18.7031 108.979 18.403C109.087 18.1029 109.26 17.8305 109.486 17.6054C109.712 17.3804 109.985 17.2084 110.286 17.1018C110.587 16.9952 110.907 16.9568 111.224 16.9892H112.475C112.796 16.9663 113.117 17.0082 113.421 17.1124C113.725 17.2166 114.004 17.3809 114.243 17.5955C114.461 17.8284 114.629 18.1034 114.736 18.4035C114.844 18.7037 114.889 19.0226 114.869 19.3408V21.2657C114.874 21.303 114.87 21.3408 114.858 21.3763C114.845 21.4118 114.825 21.444 114.798 21.4704C114.772 21.4968 114.739 21.5167 114.704 21.5285C114.668 21.5403 114.63 21.5437 114.593 21.5384H110.496C110.384 21.5384 110.326 21.5898 110.326 21.6924V22.3341C110.326 23.0762 110.697 23.4473 111.439 23.4473H114.516C114.553 23.4421 114.591 23.4455 114.627 23.4573C114.662 23.4691 114.695 23.4889 114.721 23.5153C114.748 23.5417 114.768 23.5739 114.781 23.6094C114.793 23.6449 114.797 23.6828 114.792 23.72V24.4836C114.792 24.6664 114.699 24.7498 114.516 24.7498ZM110.496 20.5182H113.223C113.244 20.5215 113.265 20.5199 113.284 20.5135C113.304 20.5071 113.322 20.4961 113.337 20.4814C113.352 20.4666 113.363 20.4486 113.369 20.4288C113.375 20.409 113.377 20.388 113.374 20.3674V19.405C113.4 19.0996 113.307 18.796 113.114 18.558C112.999 18.4599 112.866 18.3858 112.722 18.3401C112.578 18.2943 112.427 18.2779 112.277 18.2917H111.439C111.289 18.2783 111.138 18.2949 110.994 18.3406C110.85 18.3863 110.717 18.4602 110.602 18.558C110.409 18.796 110.316 19.0996 110.342 19.405V20.3674C110.339 20.3882 110.341 20.4092 110.348 20.429C110.355 20.4488 110.366 20.4667 110.381 20.4813C110.396 20.4959 110.414 20.5069 110.434 20.5133C110.454 20.5197 110.475 20.5214 110.496 20.5182V20.5182Z" fill="#1B1623"/>
<path d="M117.06 24.4901V14.2976C117.055 14.2623 117.059 14.2265 117.07 14.1928C117.082 14.1591 117.101 14.1285 117.126 14.1033C117.151 14.0781 117.181 14.0591 117.215 14.0478C117.249 14.0364 117.285 14.033 117.32 14.0377H118.282C118.318 14.033 118.354 14.0364 118.387 14.0478C118.421 14.0591 118.452 14.0781 118.477 14.1033C118.502 14.1285 118.521 14.1591 118.532 14.1928C118.544 14.2265 118.547 14.2623 118.542 14.2976V17.74H118.603C118.858 17.1925 119.371 16.9176 120.143 16.9155H120.814C121.132 16.8966 121.451 16.9416 121.752 17.0479C122.053 17.1543 122.33 17.3198 122.565 17.5347C122.782 17.765 122.949 18.0373 123.057 18.3346C123.164 18.632 123.21 18.9483 123.191 19.2639V22.3887C123.209 22.7053 123.164 23.0223 123.056 23.3206C122.949 23.619 122.782 23.8924 122.565 24.1243C122.332 24.3444 122.057 24.5147 121.755 24.625C121.454 24.7353 121.134 24.7832 120.814 24.766H117.32C117.283 24.7714 117.246 24.7679 117.21 24.7557C117.175 24.7435 117.144 24.723 117.118 24.6959C117.092 24.6688 117.074 24.6359 117.064 24.6001C117.054 24.5642 117.052 24.5265 117.06 24.4901ZM118.706 23.4538H120.596C121.327 23.4538 121.693 23.0785 121.693 22.3278V19.3409C121.693 18.5859 121.327 18.2095 120.596 18.2116H119.79C118.956 18.2116 118.539 18.6394 118.539 19.4949V23.287C118.536 23.3097 118.538 23.3328 118.545 23.3545C118.552 23.3762 118.565 23.3959 118.581 23.4121C118.597 23.4283 118.617 23.4404 118.638 23.4477C118.66 23.4549 118.683 23.457 118.706 23.4538Z" fill="#1B1623"/>
<path d="M20.6724 0.627441C16.7167 0.627441 12.85 1.80042 9.56097 3.99805C6.27198 6.19568 3.70853 9.31925 2.19478 12.9738C0.681029 16.6283 0.284962 20.6496 1.05667 24.5292C1.82837 28.4089 3.73319 31.9725 6.53024 34.7696C9.32729 37.5666 12.8909 39.4714 16.7706 40.2431C20.6502 41.0148 24.6715 40.6188 28.326 39.105C31.9806 37.5913 35.1041 35.0278 37.3018 31.7388C39.4994 28.4499 40.6724 24.5831 40.6724 20.6274C40.6724 15.3231 38.5652 10.236 34.8145 6.48531C31.0638 2.73458 25.9767 0.627441 20.6724 0.627441V0.627441ZM19.7452 30.4638C18.6554 31.2437 17.3509 31.6673 16.0108 31.6765C13.7073 31.6765 11.5803 30.4125 9.97619 28.1122C8.53401 25.9086 7.73415 23.3468 7.66628 20.7141C7.6651 20.6648 7.67848 20.6164 7.70473 20.5747C7.73098 20.533 7.76894 20.5001 7.81386 20.4799L9.37946 19.7773C9.41629 19.7605 9.45673 19.7534 9.49706 19.7564C9.53739 19.7595 9.5763 19.7726 9.6102 19.7947C9.64409 19.8168 9.67188 19.847 9.69099 19.8827C9.7101 19.9183 9.71992 19.9582 9.71953 19.9986V19.9986C9.71953 22.6326 10.4157 25.0965 11.6798 26.9348C12.8636 28.6544 14.3971 29.6008 16.0012 29.6008C16.8701 29.5985 17.7191 29.3408 18.4427 28.8597C18.4936 28.8273 18.5549 28.8153 18.6143 28.826C18.6738 28.8367 18.727 28.8693 18.7635 28.9175C19.0701 29.3371 19.4056 29.7348 19.7677 30.1077C19.7907 30.132 19.8084 30.1608 19.8198 30.1923C19.8312 30.2238 19.836 30.2572 19.8339 30.2907C19.8318 30.3241 19.8228 30.3567 19.8076 30.3865C19.7923 30.4163 19.7711 30.4426 19.7452 30.4638V30.4638ZM31.3429 28.1122C29.7644 30.4125 27.6214 31.6765 25.3179 31.6765C23.0144 31.6765 20.8841 30.4125 19.296 28.1122C17.7978 25.9338 16.9701 23.0528 16.9701 20.005C16.9701 17.185 18.5935 14.981 20.666 14.981C22.7385 14.981 24.3586 17.185 24.3586 20.005C24.3863 22.4667 23.8044 24.897 22.6647 27.0792C22.6456 27.1138 22.6185 27.1433 22.5856 27.1653C22.5528 27.1873 22.5151 27.2011 22.4758 27.2055C22.4365 27.2099 22.3967 27.2048 22.3598 27.1906C22.3229 27.1764 22.2899 27.1536 22.2636 27.1241C22.0712 26.9072 21.8933 26.6778 21.7311 26.4375C21.5381 26.1632 21.3624 25.8771 21.2049 25.5809C21.1883 25.5475 21.1796 25.5108 21.1796 25.4734C21.1796 25.4361 21.1883 25.3993 21.2049 25.366C21.9361 23.6741 22.3055 21.8481 22.2893 20.005C22.2893 18.6095 21.5963 17.0471 20.666 17.0471C19.7356 17.0471 19.0394 18.6095 19.0394 20.005C19.0394 22.639 19.7356 25.1029 20.9996 26.9412C22.1834 28.6608 23.717 29.6072 25.3179 29.6072C26.9188 29.6072 28.4555 28.6448 29.6393 26.9412C30.9034 25.1029 31.5995 22.639 31.5995 20.005C31.5995 17.3711 30.9034 14.9072 29.6393 13.0657C29.2745 12.532 28.8433 12.0469 28.356 11.622C28.3251 11.5949 28.3014 11.5603 28.2874 11.5216C28.2734 11.4829 28.2694 11.4413 28.2758 11.4006C28.2822 11.3599 28.2988 11.3215 28.324 11.289C28.3493 11.2564 28.3824 11.2308 28.4202 11.2145L29.9794 10.5119C30.0246 10.4913 30.0751 10.4852 30.1239 10.4943C30.1727 10.5035 30.2175 10.5276 30.2521 10.5633C30.6547 10.9736 31.0198 11.4192 31.3429 11.8947C32.8411 14.0763 33.6688 16.954 33.6688 20.005C33.6688 23.0561 32.8411 25.9338 31.3429 28.1122Z" fill="#A566FF"/>
</g>
<defs>
<clipPath id="clip0">
<rect width="122.515" height="40" fill="white" transform="translate(0.672363 0.627441)"/>
</clipPath>
</defs>
</svg>
