<svg width="1000" height="1000" viewBox="0 0 1000 1000" fill="none" xmlns="http://www.w3.org/2000/svg">
<path d="M500 0C401.108 0 304.441 29.3244 222.215 84.2651C139.99 139.206 75.9041 217.295 38.0604 308.659C0.216624 400.021 -9.68504 500.553 9.60764 597.543C28.9001 694.536 76.5206 783.626 146.447 853.553C216.373 923.478 305.463 971.098 402.456 990.39C499.445 1009.68 599.978 999.783 691.34 961.938C782.705 924.096 860.793 860.008 915.735 777.783C970.675 695.561 1000 598.891 1000 499.998C1000 367.391 947.32 240.214 853.553 146.447C759.785 52.6784 632.608 0 500 0ZM476.82 745.908C449.575 765.406 416.963 775.996 383.461 776.226C325.873 776.226 272.698 744.626 232.595 687.118C196.541 632.028 176.544 567.983 174.848 502.166C174.818 500.933 175.153 499.723 175.809 498.681C176.465 497.638 177.414 496.816 178.537 496.311L217.677 478.746C218.598 478.326 219.609 478.148 220.617 478.223C221.625 478.301 222.598 478.629 223.446 479.181C224.293 479.734 224.988 480.488 225.465 481.381C225.943 482.271 226.189 483.268 226.179 484.278C226.179 550.128 243.583 611.726 275.186 657.683C304.781 700.673 343.118 724.333 383.221 724.333C404.943 724.276 426.168 717.833 444.258 705.806C445.53 704.996 447.063 704.696 448.548 704.963C450.036 705.231 451.366 706.046 452.278 707.251C459.943 717.741 468.33 727.683 477.383 737.006C477.958 737.613 478.4 738.333 478.685 739.121C478.97 739.908 479.09 740.743 479.038 741.581C478.985 742.416 478.76 743.231 478.38 743.976C477.998 744.721 477.468 745.378 476.82 745.908ZM766.763 687.118C727.3 744.626 673.725 776.226 616.138 776.226C558.55 776.226 505.293 744.626 465.59 687.118C428.136 632.658 407.443 560.633 407.443 484.438C407.443 413.939 448.028 358.839 499.84 358.839C551.653 358.839 592.155 413.939 592.155 484.438C592.848 545.981 578.3 606.738 549.808 661.293C549.33 662.158 548.653 662.896 547.83 663.446C547.01 663.996 546.068 664.341 545.085 664.451C544.103 664.561 543.108 664.433 542.185 664.078C541.263 663.723 540.438 663.153 539.78 662.416C534.97 656.993 530.523 651.258 526.468 645.251C521.643 638.393 517.25 631.241 513.313 623.836C512.898 623.001 512.68 622.083 512.68 621.148C512.68 620.216 512.898 619.296 513.313 618.463C531.593 576.166 540.828 530.516 540.423 484.438C540.423 449.551 523.098 410.491 499.84 410.491C476.58 410.491 459.176 449.551 459.176 484.438C459.176 550.288 476.58 611.886 508.18 657.843C537.775 700.833 576.115 724.493 616.138 724.493C656.16 724.493 694.578 700.433 724.173 657.843C755.775 611.886 773.178 550.288 773.178 484.438C773.178 418.591 755.775 356.994 724.173 310.956C715.053 297.614 704.273 285.486 692.09 274.864C691.318 274.186 690.725 273.321 690.375 272.354C690.025 271.386 689.925 270.346 690.085 269.329C690.245 268.311 690.66 267.351 691.29 266.539C691.923 265.724 692.75 265.084 693.695 264.676L732.675 247.111C733.805 246.596 735.068 246.444 736.288 246.671C737.508 246.901 738.628 247.504 739.493 248.396C749.558 258.654 758.685 269.794 766.763 281.681C804.218 336.221 824.91 408.164 824.91 484.438C824.91 560.716 804.218 632.658 766.763 687.118Z" fill="#A566FF"/>
</svg>
