<svg width="41" height="41" viewBox="0 0 41 41" fill="none" xmlns="http://www.w3.org/2000/svg">
<g clip-path="url(#clip0)">
<path d="M20.0538 0.651855C16.1083 0.651855 12.2514 1.82183 8.97083 4.01383C5.69027 6.20584 3.13338 9.32141 1.6235 12.9666C0.113624 16.6117 -0.281429 20.6228 0.4883 24.4925C1.25803 28.3622 3.15797 31.9167 5.94786 34.7066C8.73775 37.4965 12.2923 39.3964 16.162 40.1661C20.0317 40.9359 24.0427 40.5408 27.6879 39.0309C31.333 37.5211 34.4486 34.9642 36.6406 31.6836C38.8326 28.4031 40.0026 24.5462 40.0026 20.6007C40.0026 15.3099 37.9008 10.2358 34.1597 6.49472C30.4186 2.7536 25.3445 0.651855 20.0538 0.651855V0.651855ZM19.129 30.4119C18.042 31.1898 16.7409 31.6123 15.4042 31.6215C13.1066 31.6215 10.985 30.3607 9.38499 28.0663C7.9465 25.8683 7.14868 23.313 7.08099 20.6871C7.07982 20.638 7.09316 20.5896 7.11935 20.548C7.14553 20.5065 7.18339 20.4736 7.22819 20.4535L8.78979 19.7527C8.82652 19.736 8.86686 19.7288 8.90709 19.7319C8.94731 19.7349 8.98612 19.748 9.01993 19.77C9.05374 19.7921 9.08145 19.8222 9.10052 19.8578C9.11958 19.8933 9.12937 19.9331 9.12899 19.9735V19.9735C9.12899 22.6007 9.82339 25.0583 11.0842 26.8919C12.265 28.6071 13.7946 29.5511 15.3946 29.5511C16.2612 29.5488 17.1081 29.2917 17.8298 28.8119C17.8806 28.7795 17.9417 28.7675 18.001 28.7782C18.0603 28.7889 18.1134 28.8215 18.1498 28.8695C18.4556 29.288 18.7903 29.6847 19.1514 30.0567C19.1743 30.0809 19.192 30.1096 19.2034 30.141C19.2148 30.1724 19.2196 30.2058 19.2175 30.2391C19.2154 30.2724 19.2064 30.305 19.1912 30.3347C19.176 30.3644 19.1548 30.3907 19.129 30.4119V30.4119ZM30.697 28.0663C29.1226 30.3607 26.985 31.6215 24.6874 31.6215C22.3898 31.6215 20.265 30.3607 18.681 28.0663C17.1866 25.8935 16.361 23.0199 16.361 19.9799C16.361 17.1671 17.9802 14.9687 20.0474 14.9687C22.1146 14.9687 23.7306 17.1671 23.7306 19.9799C23.7582 22.4352 23.1778 24.8593 22.041 27.0359C22.022 27.0704 21.9949 27.0999 21.9621 27.1218C21.9294 27.1437 21.8918 27.1575 21.8526 27.1618C21.8134 27.1662 21.7737 27.1611 21.7369 27.147C21.7001 27.1329 21.6672 27.1101 21.641 27.0807C21.449 26.8643 21.2716 26.6356 21.1098 26.3959C20.9173 26.1222 20.742 25.8369 20.585 25.5415C20.5684 25.5082 20.5597 25.4715 20.5597 25.4343C20.5597 25.397 20.5684 25.3603 20.585 25.3271C21.3143 23.6395 21.6827 21.8182 21.6666 19.9799C21.6666 18.5879 20.9754 17.0295 20.0474 17.0295C19.1194 17.0295 18.425 18.5879 18.425 19.9799C18.425 22.6071 19.1194 25.0647 20.3802 26.8983C21.561 28.6135 23.0906 29.5575 24.6874 29.5575C26.2842 29.5575 27.817 28.5975 28.9978 26.8983C30.2586 25.0647 30.953 22.6071 30.953 19.9799C30.953 17.3527 30.2586 14.8951 28.9978 13.0583C28.6339 12.5259 28.2038 12.0421 27.7178 11.6183C27.6869 11.5912 27.6633 11.5568 27.6493 11.5181C27.6353 11.4795 27.6313 11.438 27.6377 11.3974C27.6441 11.3568 27.6607 11.3185 27.6859 11.2861C27.7111 11.2536 27.7441 11.2281 27.7818 11.2119L29.337 10.5111C29.3821 10.4905 29.4324 10.4843 29.4811 10.4935C29.5298 10.5027 29.5745 10.5267 29.609 10.5623C30.0106 10.9715 30.3747 11.416 30.697 11.8903C32.1914 14.0663 33.017 16.9367 33.017 19.9799C33.017 23.0231 32.1914 25.8935 30.697 28.0663Z" fill="white"/>
</g>
<defs>
<clipPath id="clip0">
<rect width="40" height="40" fill="white" transform="translate(0.10498 0.627441)"/>
</clipPath>
</defs>
</svg>
