<svg width="41" height="41" viewBox="0 0 41 41" fill="none" xmlns="http://www.w3.org/2000/svg">
<g clip-path="url(#clip0)">
<path d="M20.8433 0.651855C16.8978 0.651855 13.0409 1.82183 9.76038 4.01383C6.47982 6.20584 3.92293 9.32141 2.41305 12.9666C0.903175 16.6117 0.508122 20.6228 1.27785 24.4925C2.04758 28.3622 3.94752 31.9167 6.73741 34.7066C9.5273 37.4965 13.0818 39.3964 16.9515 40.1661C20.8212 40.9359 24.8322 40.5408 28.4774 39.0309C32.1226 37.5211 35.2382 34.9642 37.4302 31.6836C39.6222 28.4031 40.7921 24.5462 40.7921 20.6007C40.7921 15.3099 38.6904 10.2358 34.9493 6.49472C31.2081 2.7536 26.1341 0.651855 20.8433 0.651855V0.651855ZM19.9185 30.4119C18.8315 31.1898 17.5304 31.6123 16.1937 31.6215C13.8961 31.6215 11.7745 30.3607 10.1745 28.0663C8.73605 25.8683 7.93824 23.313 7.87054 20.6871C7.86937 20.638 7.88271 20.5896 7.9089 20.548C7.93508 20.5065 7.97294 20.4736 8.01774 20.4535L9.57934 19.7527C9.61607 19.736 9.65641 19.7288 9.69664 19.7319C9.73686 19.7349 9.77567 19.748 9.80948 19.77C9.84329 19.7921 9.871 19.8222 9.89007 19.8578C9.90913 19.8933 9.91892 19.9331 9.91854 19.9735V19.9735C9.91854 22.6007 10.6129 25.0583 11.8737 26.8919C13.0545 28.6071 14.5841 29.5511 16.1841 29.5511C17.0508 29.5488 17.8976 29.2917 18.6193 28.8119C18.6702 28.7795 18.7313 28.7675 18.7906 28.7782C18.8499 28.7889 18.903 28.8215 18.9393 28.8695C19.2452 29.288 19.5798 29.6847 19.9409 30.0567C19.9639 30.0809 19.9816 30.1096 19.993 30.141C20.0043 30.1724 20.0091 30.2058 20.007 30.2391C20.0049 30.2724 19.996 30.305 19.9808 30.3347C19.9655 30.3644 19.9444 30.3907 19.9185 30.4119V30.4119ZM31.4865 28.0663C29.9121 30.3607 27.7745 31.6215 25.4769 31.6215C23.1793 31.6215 21.0545 30.3607 19.4705 28.0663C17.9761 25.8935 17.1505 23.0199 17.1505 19.9799C17.1505 17.1671 18.7697 14.9687 20.8369 14.9687C22.9041 14.9687 24.5201 17.1671 24.5201 19.9799C24.5478 22.4352 23.9673 24.8593 22.8305 27.0359C22.8115 27.0704 22.7845 27.0999 22.7517 27.1218C22.7189 27.1437 22.6813 27.1575 22.6421 27.1618C22.6029 27.1662 22.5633 27.1611 22.5265 27.147C22.4896 27.1329 22.4567 27.1101 22.4305 27.0807C22.2386 26.8643 22.0611 26.6356 21.8993 26.3959C21.7069 26.1222 21.5316 25.8369 21.3745 25.5415C21.3579 25.5082 21.3493 25.4715 21.3493 25.4343C21.3493 25.397 21.3579 25.3603 21.3745 25.3271C22.1038 23.6395 22.4723 21.8182 22.4561 19.9799C22.4561 18.5879 21.7649 17.0295 20.8369 17.0295C19.9089 17.0295 19.2145 18.5879 19.2145 19.9799C19.2145 22.6071 19.9089 25.0647 21.1697 26.8983C22.3505 28.6135 23.8801 29.5575 25.4769 29.5575C27.0737 29.5575 28.6065 28.5975 29.7873 26.8983C31.0481 25.0647 31.7425 22.6071 31.7425 19.9799C31.7425 17.3527 31.0481 14.8951 29.7873 13.0583C29.4234 12.5259 28.9933 12.0421 28.5073 11.6183C28.4764 11.5912 28.4529 11.5568 28.4389 11.5181C28.4249 11.4795 28.4209 11.438 28.4273 11.3974C28.4337 11.3568 28.4502 11.3185 28.4754 11.2861C28.5006 11.2536 28.5336 11.2281 28.5713 11.2119L30.1265 10.5111C30.1716 10.4905 30.222 10.4843 30.2707 10.4935C30.3194 10.5027 30.364 10.5267 30.3985 10.5623C30.8001 10.9715 31.1643 11.416 31.4865 11.8903C32.9809 14.0663 33.8065 16.9367 33.8065 19.9799C33.8065 23.0231 32.9809 25.8935 31.4865 28.0663Z" fill="#A566FF"/>
</g>
<defs>
<clipPath id="clip0">
<rect width="40" height="40" fill="white" transform="translate(0.894531 0.627441)"/>
</clipPath>
</defs>
</svg>
