<svg width="98" height="99" viewBox="0 0 98 99" fill="none" xmlns="http://www.w3.org/2000/svg">
<rect y="0.168457" width="98" height="98" rx="49" fill="#92E9EA"/>
<g clip-path="url(#clip0)">
<path d="M49.3276 30.7456C45.6687 30.7456 42.0919 31.8306 39.0496 33.8634C36.0073 35.8962 33.6361 38.7855 32.2359 42.166C30.8357 45.5464 30.4693 49.2661 31.1831 52.8548C31.8969 56.4434 33.6589 59.7398 36.2462 62.3271C38.8334 64.9143 42.1298 66.6763 45.7185 67.3901C49.3071 68.104 53.0269 67.7376 56.4073 66.3374C59.7877 64.9371 62.677 62.566 64.7098 59.5236C66.7426 56.4813 67.8276 52.9046 67.8276 49.2456C67.8276 44.3391 65.8785 39.6336 62.4091 36.1641C58.9397 32.6947 54.2341 30.7456 49.3276 30.7456V30.7456ZM48.47 58.3443C47.4619 59.0657 46.2553 59.4575 45.0157 59.466C42.885 59.466 40.9175 58.2968 39.4337 56.169C38.0997 54.1306 37.3598 51.761 37.297 49.3257C37.2959 49.2802 37.3083 49.2353 37.3326 49.1968C37.3569 49.1583 37.392 49.1278 37.4335 49.1091L38.8817 48.4592C38.9158 48.4437 38.9532 48.4371 38.9905 48.4399C39.0278 48.4427 39.0638 48.4549 39.0951 48.4753C39.1265 48.4957 39.1522 48.5237 39.1699 48.5567C39.1875 48.5897 39.1966 48.6265 39.1963 48.664V48.664C39.1963 51.1003 39.8402 53.3795 41.0095 55.0799C42.1045 56.6705 43.523 57.546 45.0068 57.546C45.8105 57.5438 46.5959 57.3055 47.2652 56.8605C47.3123 56.8305 47.369 56.8194 47.424 56.8293C47.4789 56.8391 47.5282 56.8694 47.5619 56.9139C47.8455 57.302 48.1559 57.6699 48.4908 58.0148C48.5121 58.0373 48.5285 58.064 48.539 58.0931C48.5496 58.1222 48.554 58.1532 48.5521 58.1841C48.5501 58.215 48.5418 58.2451 48.5277 58.2727C48.5136 58.3003 48.4939 58.3246 48.47 58.3443V58.3443ZM59.1979 56.169C57.7378 58.2968 55.7555 59.466 53.6247 59.466C51.494 59.466 49.5235 58.2968 48.0545 56.169C46.6687 54.154 45.903 51.4891 45.903 48.6699C45.903 46.0614 47.4046 44.0226 49.3217 44.0226C51.2388 44.0226 52.7374 46.0614 52.7374 48.6699C52.763 50.9469 52.2247 53.195 51.1705 55.2134C51.1529 55.2455 51.1278 55.2728 51.0974 55.2931C51.067 55.3135 51.0322 55.3262 50.9958 55.3303C50.9595 55.3343 50.9227 55.3296 50.8885 55.3165C50.8544 55.3034 50.8239 55.2823 50.7996 55.255C50.6216 55.0544 50.457 54.8422 50.3069 54.6199C50.1284 54.3662 49.9659 54.1015 49.8203 53.8276C49.8048 53.7967 49.7968 53.7627 49.7968 53.7282C49.7968 53.6936 49.8048 53.6596 49.8203 53.6287C50.4966 52.0638 50.8383 50.3747 50.8233 48.6699C50.8233 47.379 50.1823 45.9338 49.3217 45.9338C48.4611 45.9338 47.8171 47.379 47.8171 48.6699C47.8171 51.1063 48.4611 53.3854 49.6303 55.0858C50.7254 56.6765 52.1439 57.5519 53.6247 57.5519C55.1056 57.5519 56.527 56.6616 57.6221 55.0858C58.7913 53.3854 59.4353 51.1063 59.4353 48.6699C59.4353 46.2335 58.7913 43.9544 57.6221 42.251C57.2846 41.7573 56.8857 41.3086 56.435 40.9156C56.4064 40.8905 56.3845 40.8585 56.3715 40.8227C56.3585 40.7869 56.3548 40.7484 56.3608 40.7107C56.3667 40.6731 56.3821 40.6376 56.4054 40.6075C56.4288 40.5774 56.4594 40.5537 56.4944 40.5387L57.9366 39.8888C57.9784 39.8697 58.0251 39.864 58.0703 39.8725C58.1155 39.881 58.1569 39.9033 58.1889 39.9363C58.5613 40.3158 58.899 40.728 59.1979 41.1678C60.5837 43.1858 61.3494 45.8477 61.3494 48.6699C61.3494 51.4921 60.5837 54.154 59.1979 56.169Z" fill="black"/>
</g>
<defs>
<clipPath id="clip0">
<rect width="38" height="38" fill="white" transform="translate(30 30.1685)"/>
</clipPath>
</defs>
</svg>
