<svg width="20" height="21" viewBox="0 0 20 21" fill="none" xmlns="http://www.w3.org/2000/svg">
<path d="M20 10.7124C20 5.19849 15.5143 0.712402 10 0.712402C4.48568 0.712402 0 5.19849 0 10.7124C0 13.5321 1.17767 16.078 3.06137 17.8976C3.10547 17.955 3.1577 18.0016 3.21884 18.0408C5.0032 19.6932 7.3819 20.7124 10 20.7124C12.6181 20.7124 14.9968 19.6932 16.7812 18.0408C16.8423 18.0016 16.8945 17.955 16.9386 17.8976C18.8223 16.078 20 13.5321 20 10.7124ZM10 1.9624C14.825 1.9624 18.75 5.88778 18.75 10.7124C18.75 12.7582 18.0389 14.6381 16.8581 16.1298C16.316 14.3816 14.7684 13.013 12.668 12.3833C13.8127 11.5549 14.5614 10.2128 14.5614 8.69621C14.5614 6.18441 12.5155 4.14095 10 4.14095C7.48454 4.14095 5.43864 6.18441 5.43864 8.69621C5.43864 10.2128 6.18734 11.5549 7.332 12.3833C5.23158 13.013 3.68398 14.3816 3.14189 16.1298C1.96106 14.6381 1.25 12.7582 1.25 10.7124C1.25 5.88778 5.17497 1.9624 10 1.9624ZM6.68864 8.69621C6.68864 6.8737 8.17383 5.39095 10 5.39095C11.8262 5.39095 13.3114 6.8737 13.3114 8.69621C13.3114 10.5187 11.8262 12.0015 10 12.0015C8.17383 12.0015 6.68864 10.5187 6.68864 8.69621ZM4.1923 17.239C4.38019 14.9474 6.8103 13.2515 10 13.2515C13.1897 13.2515 15.6198 14.9474 15.8077 17.239C14.2609 18.617 12.2298 19.4624 10 19.4624C7.77023 19.4624 5.73908 18.617 4.1923 17.239Z" fill="#A566FF"/>
</svg>
