<svg width="98" height="99" viewBox="0 0 98 99" fill="none" xmlns="http://www.w3.org/2000/svg">
<rect y="0.627441" width="98" height="98" rx="49" fill="#A566FF"/>
<path d="M70 49.1274C70 37.8239 60.8044 28.6274 49.5 28.6274C38.1956 28.6274 29 37.8239 29 49.1274C29 54.9078 31.4142 60.1268 35.2758 63.8571C35.3662 63.9748 35.4733 64.0702 35.5986 64.1506C39.2566 67.538 44.1329 69.6274 49.5 69.6274C54.8671 69.6274 59.7434 67.538 63.4014 64.1506C63.5267 64.0702 63.6338 63.9748 63.7242 63.8571C67.5858 60.1268 70 54.9078 70 49.1274ZM49.5 31.1899C59.3913 31.1899 67.4375 39.237 67.4375 49.1274C67.4375 53.3213 65.9798 57.1751 63.5591 60.2331C62.4478 56.6493 59.2753 53.8437 54.9694 52.5528C57.316 50.8545 58.8508 48.1032 58.8508 44.9942C58.8508 39.8451 54.6567 35.656 49.5 35.656C44.3433 35.656 40.1492 39.8451 40.1492 44.9942C40.1492 48.1032 41.684 50.8545 44.0306 52.5528C39.7247 53.8437 36.5522 56.6493 35.4409 60.2331C33.0202 57.1751 31.5625 53.3213 31.5625 49.1274C31.5625 39.237 39.6087 31.1899 49.5 31.1899ZM42.7117 44.9942C42.7117 41.2581 45.7563 38.2185 49.5 38.2185C53.2437 38.2185 56.2883 41.2581 56.2883 44.9942C56.2883 48.7304 53.2437 51.77 49.5 51.77C45.7563 51.77 42.7117 48.7304 42.7117 44.9942ZM37.5942 62.5071C37.9794 57.8092 42.9611 54.3325 49.5 54.3325C56.0389 54.3325 61.0206 57.8092 61.4058 62.5071C58.2349 65.3319 54.071 67.0649 49.5 67.0649C44.929 67.0649 40.7651 65.3319 37.5942 62.5071Z" fill="black"/>
</svg>
