<svg width="20" height="21" viewBox="0 0 20 21" fill="none" xmlns="http://www.w3.org/2000/svg">
<path opacity="0.2" d="M18 16.7124V14.7124H15C14.4006 14.714 13.8155 14.8951 13.32 15.2324V15.2324L13.23 15.3024L13.11 15.4024L13.02 15.4624C12.6383 15.8009 12.3492 16.2311 12.18 16.7124H9C7.61553 16.7124 6.26216 16.3019 5.11101 15.5327C3.95987 14.7635 3.06266 13.6703 2.53285 12.3912C2.00303 11.1121 1.86441 9.70464 2.13451 8.34677C2.4046 6.98891 3.07129 5.74163 4.05026 4.76266C5.02922 3.78369 6.2765 3.11701 7.63437 2.84691C8.99224 2.57681 10.3997 2.71544 11.6788 3.24525C12.9579 3.77506 14.0511 4.67227 14.8203 5.82341C15.5895 6.97456 16 8.32794 16 9.7124V11.7124H13C13 10.1211 12.3679 8.59498 11.2426 7.46976C10.1174 6.34455 8.5913 5.71241 7 5.71241H5V7.71241C5 9.3037 5.63214 10.8298 6.75736 11.955C7.88258 13.0803 9.4087 13.7124 11 13.7124H18V9.7124C18 7.93237 17.4722 6.19232 16.4832 4.71227C15.4943 3.23223 14.0887 2.07868 12.4442 1.39749C10.7996 0.716302 8.99002 0.538072 7.24419 0.885339C5.49836 1.23261 3.89471 2.08977 2.63604 3.34844C1.37737 4.60712 0.520203 6.21076 0.172936 7.95659C-0.17433 9.70242 0.00389951 11.512 0.685088 13.1566C1.36628 14.8011 2.51983 16.2067 3.99987 17.1956C5.47991 18.1846 7.21997 18.7124 9 18.7124H12.18C12.3863 19.296 12.7681 19.8014 13.2729 20.1595C13.7778 20.5175 14.3811 20.7107 15 20.7124H18V18.7124H20V16.7124H18Z" fill="black"/>
</svg>
