<?xml version="1.0" standalone="no"?>
<!DOCTYPE svg PUBLIC "-//W3C//DTD SVG 20010904//EN"
 "http://www.w3.org/TR/2001/REC-SVG-20010904/DTD/svg10.dtd">
<svg version="1.0" xmlns="http://www.w3.org/2000/svg"
 width="700.000000pt" height="700.000000pt" viewBox="0 0 700.000000 700.000000"
 preserveAspectRatio="xMidYMid meet">
<metadata>
Created by potrace 1.14, written by Peter Selinger 2001-2017
</metadata>
<g transform="translate(0.000000,700.000000) scale(0.100000,-0.100000)"
fill="#000000" stroke="none">
<path d="M3278 6995 c-1 -1 -41 -6 -88 -9 -47 -4 -94 -9 -105 -11 -11 -2 -42
-7 -70 -10 -27 -3 -72 -10 -100 -15 -27 -5 -61 -12 -75 -14 -153 -28 -314 -71
-475 -126 -115 -40 -134 -47 -217 -84 -20 -9 -39 -16 -42 -16 -12 0 -280 -136
-356 -180 -80 -46 -302 -189 -310 -200 -3 -3 -39 -31 -80 -62 -202 -151 -448
-396 -620 -617 -73 -93 -250 -353 -250 -366 0 -3 -12 -24 -27 -48 -38 -61
-155 -297 -198 -402 -58 -141 -146 -413 -170 -525 -2 -8 -8 -35 -14 -60 -11
-49 -16 -78 -28 -149 -4 -25 -8 -48 -8 -51 -1 -3 -5 -32 -9 -65 -5 -33 -10
-69 -12 -80 -25 -135 -25 -674 0 -813 2 -9 7 -43 11 -76 27 -225 134 -634 210
-801 7 -16 23 -55 35 -85 27 -68 138 -290 192 -385 98 -169 314 -468 412 -571
280 -291 425 -418 666 -578 328 -219 653 -367 1027 -470 144 -40 313 -76 428
-91 22 -2 56 -7 75 -10 197 -27 662 -27 850 1 355 53 637 128 930 249 111 46
350 169 465 240 170 105 398 272 494 363 204 194 329 326 423 447 12 17 26 35
31 40 81 98 241 347 321 500 143 272 275 639 332 919 53 265 71 466 68 761 -1
138 -5 264 -8 280 -2 17 -8 55 -11 85 -10 86 -15 123 -19 145 -34 189 -60 301
-96 420 -12 39 -25 84 -29 100 -27 102 -138 367 -223 533 -202 392 -506 776
-828 1046 -47 39 -87 74 -90 77 -13 16 -231 171 -299 214 -211 131 -415 236
-601 308 -107 42 -318 113 -360 122 -8 2 -42 10 -75 19 -71 18 -196 45 -245
52 -19 3 -60 9 -91 15 -31 5 -81 12 -110 15 -30 3 -67 8 -84 10 -34 6 -542 14
-547 9z m1970 -1813 c226 -268 378 -590 466 -992 14 -63 28 -140 31 -170 4
-30 8 -66 10 -80 27 -188 21 -572 -11 -750 -2 -14 -7 -43 -10 -65 -9 -63 -62
-275 -89 -358 -163 -500 -463 -892 -818 -1070 -144 -72 -234 -102 -376 -122
-81 -12 -318 -4 -342 10 -3 2 -21 7 -40 10 -95 17 -259 87 -372 159 -303 194
-562 555 -706 982 -51 152 -76 261 -116 502 -18 109 -25 433 -12 533 46 343
241 621 487 693 265 78 516 -50 677 -344 129 -235 152 -594 69 -1040 -21 -112
-34 -162 -77 -299 -50 -154 -145 -378 -176 -413 -34 -38 -65 -15 -154 112 -79
113 -102 158 -93 188 4 15 8 29 9 32 1 3 9 23 18 44 33 75 87 259 111 380 34
165 45 274 47 441 2 173 -29 308 -97 421 -77 130 -177 171 -272 112 -70 -43
-160 -203 -178 -315 -3 -21 -9 -56 -13 -78 -14 -78 -3 -323 23 -485 33 -205
107 -442 190 -610 178 -358 423 -586 706 -659 105 -27 288 -23 380 9 283 97
509 316 675 655 71 145 156 400 170 512 2 12 6 34 9 50 13 59 16 80 24 158 9
104 9 473 -1 550 -14 115 -17 130 -33 210 -27 137 -87 341 -105 360 -5 5 -9
16 -9 25 0 27 -116 246 -180 339 -34 50 -102 133 -151 184 -90 93 -103 118
-71 138 47 29 280 128 302 128 19 0 42 -21 98 -87z m-3673 -1549 c4 -10 8 -63
11 -118 30 -778 410 -1425 917 -1562 63 -18 263 -24 320 -11 80 19 148 43 211
76 39 20 79 40 89 44 20 9 38 -7 97 -82 19 -25 56 -68 83 -96 26 -28 47 -60
47 -72 0 -25 -39 -57 -141 -111 -70 -38 -217 -94 -279 -107 -211 -43 -410 -32
-600 33 -87 29 -201 84 -247 119 -17 13 -35 24 -39 24 -4 0 -39 26 -78 57
-157 126 -307 300 -403 468 -184 322 -296 673 -328 1020 -10 108 -12 168 -7
187 2 10 53 38 130 72 70 31 134 61 142 66 25 16 67 12 75 -7z"/>
</g>
</svg>
