<svg width="40" height="41" viewBox="0 0 40 41" fill="none" xmlns="http://www.w3.org/2000/svg">
<g clip-path="url(#clip0)">
<path d="M19.9488 0.651855C16.0033 0.651855 12.1464 1.82183 8.86585 4.01383C5.58529 6.20584 3.0284 9.32141 1.51852 12.9666C0.00864349 16.6117 -0.386409 20.6228 0.38332 24.4925C1.15305 28.3622 3.05299 31.9167 5.84288 34.7066C8.63277 37.4965 12.1873 39.3964 16.057 40.1661C19.9267 40.9359 23.9377 40.5408 27.5829 39.0309C31.2281 37.5211 34.3436 34.9642 36.5356 31.6836C38.7276 28.4031 39.8976 24.5462 39.8976 20.6007C39.8976 15.3099 37.7959 10.2358 34.0547 6.49472C30.3136 2.7536 25.2396 0.651855 19.9488 0.651855V0.651855ZM19.024 30.4119C17.937 31.1898 16.6359 31.6123 15.2992 31.6215C13.0016 31.6215 10.88 30.3607 9.28001 28.0663C7.84152 25.8683 7.0437 23.313 6.97601 20.6871C6.97484 20.638 6.98818 20.5896 7.01437 20.548C7.04055 20.5065 7.07841 20.4736 7.12321 20.4535L8.68481 19.7527C8.72154 19.736 8.76188 19.7288 8.80211 19.7319C8.84233 19.7349 8.88114 19.748 8.91495 19.77C8.94876 19.7921 8.97647 19.8222 8.99554 19.8578C9.0146 19.8933 9.02439 19.9331 9.02401 19.9735V19.9735C9.02401 22.6007 9.71841 25.0583 10.9792 26.8919C12.16 28.6071 13.6896 29.5511 15.2896 29.5511C16.1563 29.5488 17.0031 29.2917 17.7248 28.8119C17.7756 28.7795 17.8368 28.7675 17.896 28.7782C17.9553 28.7889 18.0084 28.8215 18.0448 28.8695C18.3506 29.288 18.6853 29.6847 19.0464 30.0567C19.0694 30.0809 19.0871 30.1096 19.0984 30.141C19.1098 30.1724 19.1146 30.2058 19.1125 30.2391C19.1104 30.2724 19.1014 30.305 19.0862 30.3347C19.071 30.3644 19.0498 30.3907 19.024 30.4119V30.4119ZM30.592 28.0663C29.0176 30.3607 26.88 31.6215 24.5824 31.6215C22.2848 31.6215 20.16 30.3607 18.576 28.0663C17.0816 25.8935 16.256 23.0199 16.256 19.9799C16.256 17.1671 17.8752 14.9687 19.9424 14.9687C22.0096 14.9687 23.6256 17.1671 23.6256 19.9799C23.6532 22.4352 23.0728 24.8593 21.936 27.0359C21.917 27.0704 21.8899 27.0999 21.8572 27.1218C21.8244 27.1437 21.7868 27.1575 21.7476 27.1618C21.7084 27.1662 21.6687 27.1611 21.6319 27.147C21.5951 27.1329 21.5622 27.1101 21.536 27.0807C21.3441 26.8643 21.1666 26.6356 21.0048 26.3959C20.8123 26.1222 20.637 25.8369 20.48 25.5415C20.4634 25.5082 20.4547 25.4715 20.4547 25.4343C20.4547 25.397 20.4634 25.3603 20.48 25.3271C21.2093 23.6395 21.5777 21.8182 21.5616 19.9799C21.5616 18.5879 20.8704 17.0295 19.9424 17.0295C19.0144 17.0295 18.32 18.5879 18.32 19.9799C18.32 22.6071 19.0144 25.0647 20.2752 26.8983C21.456 28.6135 22.9856 29.5575 24.5824 29.5575C26.1792 29.5575 27.712 28.5975 28.8928 26.8983C30.1536 25.0647 30.848 22.6071 30.848 19.9799C30.848 17.3527 30.1536 14.8951 28.8928 13.0583C28.5289 12.5259 28.0988 12.0421 27.6128 11.6183C27.5819 11.5912 27.5583 11.5568 27.5443 11.5181C27.5303 11.4795 27.5263 11.438 27.5327 11.3974C27.5391 11.3568 27.5557 11.3185 27.5809 11.2861C27.6061 11.2536 27.6391 11.2281 27.6768 11.2119L29.232 10.5111C29.2771 10.4905 29.3274 10.4843 29.3761 10.4935C29.4248 10.5027 29.4695 10.5267 29.504 10.5623C29.9056 10.9715 30.2697 11.416 30.592 11.8903C32.0864 14.0663 32.912 16.9367 32.912 19.9799C32.912 23.0231 32.0864 25.8935 30.592 28.0663Z" fill="black"/>
</g>
<defs>
<clipPath id="clip0">
<rect width="40" height="40" fill="white" transform="translate(0 0.627441)"/>
</clipPath>
</defs>
</svg>
