<svg width="98" height="99" viewBox="0 0 98 99" fill="none" xmlns="http://www.w3.org/2000/svg">
<rect y="0.712402" width="98" height="98" rx="49" fill="#F6ACB0"/>
<path d="M60.9 58.5124V55.4124H56.25C55.321 55.4149 54.414 55.6956 53.646 56.2184V56.2184L53.5065 56.3269L53.3205 56.4819L53.181 56.5749C52.5893 57.0995 52.1412 57.7664 51.879 58.5124H46.95C44.8041 58.5124 42.7063 57.8761 40.9221 56.6838C39.1378 55.4916 37.7471 53.7971 36.9259 51.8145C36.1047 49.8319 35.8898 47.6504 36.3085 45.5457C36.7271 43.441 37.7605 41.5077 39.2779 39.9903C40.7953 38.4729 42.7286 37.4395 44.8333 37.0209C46.938 36.6022 49.1195 36.8171 51.1021 37.6383C53.0847 38.4595 54.7792 39.8502 55.9714 41.6345C57.1637 43.4187 57.8 45.5165 57.8 47.6624V50.7624H53.15C53.15 48.2959 52.1702 45.9304 50.4261 44.1863C48.682 42.4422 46.3165 41.4624 43.85 41.4624H40.75V44.5624C40.75 47.0289 41.7298 49.3944 43.4739 51.1385C45.218 52.8826 47.5835 53.8624 50.05 53.8624H60.9V47.6624C60.9 44.9034 60.0818 42.2063 58.549 39.9122C57.0162 37.6181 54.8375 35.8301 52.2884 34.7743C49.7394 33.7184 46.9345 33.4422 44.2285 33.9805C41.5225 34.5187 39.0368 35.8473 37.0859 37.7983C35.1349 39.7492 33.8063 42.2349 33.2681 44.9409C32.7298 47.6469 33.006 50.4518 34.0619 53.0008C35.1177 55.5499 36.9057 57.7286 39.1998 59.2614C41.4939 60.7943 44.191 61.6124 46.95 61.6124H51.879C52.1988 62.5169 52.7905 63.3004 53.5731 63.8553C54.3556 64.4103 55.2906 64.7097 56.25 64.7124H60.9V61.6124H64V58.5124H60.9Z" fill="black"/>
</svg>
