<svg width="99" height="99" viewBox="0 0 99 99" fill="none" xmlns="http://www.w3.org/2000/svg">
<rect x="0.5" y="0.845703" width="98" height="98" rx="49" fill="#F7E296"/>
<path d="M61.4 58.6457V55.5457H56.75C55.821 55.5482 54.914 55.8289 54.146 56.3517V56.3517L54.0065 56.4602L53.8205 56.6152L53.681 56.7082C53.0893 57.2328 52.6412 57.8997 52.379 58.6457H47.45C45.3041 58.6457 43.2063 58.0094 41.4221 56.8172C39.6378 55.6249 38.2471 53.9304 37.4259 51.9478C36.6047 49.9652 36.3898 47.7837 36.8085 45.679C37.2271 43.5743 38.2605 41.641 39.7779 40.1236C41.2953 38.6062 43.2286 37.5728 45.3333 37.1542C47.438 36.7355 49.6195 36.9504 51.6021 37.7716C53.5847 38.5928 55.2792 39.9835 56.4714 41.7678C57.6637 43.552 58.3 45.6498 58.3 47.7957V50.8957H53.65C53.65 48.4292 52.6702 46.0637 50.9261 44.3196C49.182 42.5755 46.8165 41.5957 44.35 41.5957H41.25V44.6957C41.25 47.1622 42.2298 49.5277 43.9739 51.2718C45.718 53.0159 48.0835 53.9957 50.55 53.9957H61.4V47.7957C61.4 45.0367 60.5818 42.3396 59.049 40.0455C57.5162 37.7514 55.3375 35.9634 52.7884 34.9076C50.2394 33.8517 47.4345 33.5755 44.7285 34.1138C42.0225 34.652 39.5368 35.9806 37.5859 37.9316C35.6349 39.8825 34.3063 42.3682 33.7681 45.0742C33.2298 47.7802 33.506 50.5851 34.5619 53.1341C35.6177 55.6832 37.4057 57.8619 39.6998 59.3947C41.9939 60.9276 44.691 61.7457 47.45 61.7457H52.379C52.6988 62.6502 53.2905 63.4337 54.0731 63.9886C54.8556 64.5436 55.7906 64.843 56.75 64.8457H61.4V61.7457H64.5V58.6457H61.4Z" fill="black"/>
</svg>
