<svg width="20" height="21" viewBox="0 0 20 21" fill="none" xmlns="http://www.w3.org/2000/svg">
<g opacity="0.2" clip-path="url(#clip0)">
<path d="M10.1724 1.01611C8.24663 1.01611 6.36411 1.58717 4.76289 2.65707C3.16168 3.72696 1.91368 5.24765 1.17672 7.02683C0.439766 8.806 0.246944 10.7638 0.622642 12.6525C0.99834 14.5413 1.92568 16.2762 3.28741 17.6379C4.64913 18.9997 6.38407 19.927 8.27283 20.3027C10.1616 20.6784 12.1193 20.4856 13.8985 19.7486C15.6777 19.0117 17.1984 17.7637 18.2683 16.1625C19.3382 14.5612 19.9092 12.6787 19.9092 10.753C19.9092 8.17058 18.8834 5.69398 17.0574 3.86797C15.2314 2.04196 12.7548 1.01611 10.1724 1.01611V1.01611ZM9.721 15.5417C9.19043 15.9214 8.55538 16.1276 7.90296 16.1321C6.78152 16.1321 5.74599 15.5167 4.96504 14.3968C4.26293 13.324 3.87352 12.0768 3.84048 10.7951C3.83991 10.7712 3.84642 10.7476 3.8592 10.7273C3.87198 10.707 3.89046 10.6909 3.91232 10.6811L4.67453 10.3391C4.69246 10.3309 4.71215 10.3274 4.73178 10.3289C4.75141 10.3304 4.77036 10.3368 4.78686 10.3475C4.80336 10.3583 4.81689 10.373 4.82619 10.3904C4.83549 10.4077 4.84027 10.4271 4.84009 10.4468V10.4468C4.84009 11.7291 5.17902 12.9287 5.79441 13.8236C6.37074 14.6608 7.11733 15.1216 7.89827 15.1216C8.32128 15.1205 8.73462 14.995 9.08688 14.7608C9.11169 14.745 9.14152 14.7391 9.17046 14.7443C9.19939 14.7496 9.22531 14.7655 9.24306 14.7889C9.39233 14.9932 9.55569 15.1868 9.73194 15.3683C9.74314 15.3802 9.75178 15.3942 9.75733 15.4095C9.76288 15.4248 9.76521 15.4411 9.76419 15.4574C9.76316 15.4737 9.7588 15.4896 9.75137 15.5041C9.74394 15.5186 9.7336 15.5314 9.721 15.5417V15.5417ZM15.3672 14.3968C14.5988 15.5167 13.5555 16.1321 12.434 16.1321C11.3126 16.1321 10.2755 15.5167 9.50234 14.3968C8.77293 13.3363 8.36997 11.9337 8.36997 10.4499C8.36997 9.07704 9.16028 8.00402 10.1693 8.00402C11.1782 8.00402 11.967 9.07704 11.967 10.4499C11.9805 11.6484 11.6972 12.8316 11.1423 13.8939C11.133 13.9108 11.1198 13.9252 11.1038 13.9359C11.0878 13.9466 11.0695 13.9533 11.0504 13.9554C11.0312 13.9576 11.0119 13.9551 10.9939 13.9482C10.9759 13.9413 10.9599 13.9302 10.9471 13.9158C10.8534 13.8102 10.7668 13.6985 10.6878 13.5815C10.5939 13.448 10.5083 13.3087 10.4317 13.1645C10.4236 13.1483 10.4193 13.1304 10.4193 13.1122C10.4193 13.094 10.4236 13.0761 10.4317 13.0599C10.7876 12.2362 10.9675 11.3472 10.9596 10.4499C10.9596 9.77052 10.6222 9.00988 10.1693 9.00988C9.71632 9.00988 9.37739 9.77052 9.37739 10.4499C9.37739 11.7323 9.71632 12.9318 10.3317 13.8268C10.908 14.6639 11.6546 15.1247 12.434 15.1247C13.2134 15.1247 13.9615 14.6561 14.5379 13.8268C15.1533 12.9318 15.4922 11.7323 15.4922 10.4499C15.4922 9.16763 15.1533 7.9681 14.5379 7.07157C14.3603 6.81175 14.1503 6.57558 13.9131 6.36872C13.898 6.35552 13.8865 6.3387 13.8797 6.31985C13.8729 6.30101 13.8709 6.28073 13.874 6.26092C13.8772 6.24112 13.8852 6.22242 13.8975 6.20659C13.9098 6.19075 13.9259 6.17829 13.9444 6.17036L14.7034 5.8283C14.7254 5.81825 14.75 5.81526 14.7738 5.81973C14.7976 5.82421 14.8194 5.83593 14.8362 5.8533C15.0322 6.05306 15.2099 6.26999 15.3672 6.50148C16.0967 7.56357 16.4996 8.96459 16.4996 10.4499C16.4996 11.9353 16.0967 13.3363 15.3672 14.3968Z" fill="black"/>
</g>
<defs>
<clipPath id="clip0">
<rect width="20" height="20" fill="white" transform="translate(0 0.712402)"/>
</clipPath>
</defs>
</svg>
