<svg width="20" height="21" viewBox="0 0 20 21" fill="none" xmlns="http://www.w3.org/2000/svg">
<path opacity="0.2" d="M0 10.7124C0 8.06024 1.05357 5.5167 2.92893 3.64133C4.8043 1.76597 7.34784 0.712402 10 0.712402C12.6522 0.712402 15.1957 1.76597 17.0711 3.64133C18.9464 5.5167 20 8.06024 20 10.7124C20 13.3646 18.9464 15.9081 17.0711 17.7835C15.1957 19.6588 12.6522 20.7124 10 20.7124C7.34784 20.7124 4.8043 19.6588 2.92893 17.7835C1.05357 15.9081 0 13.3646 0 10.7124V10.7124ZM9.375 2.05865C8.5375 2.31365 7.70625 3.08365 7.01625 4.3774C6.78892 4.80752 6.59339 5.25372 6.43125 5.7124H9.375V2.05865ZM5.1125 5.7124C5.32084 5.04842 5.58859 4.40457 5.9125 3.78865C6.12863 3.37997 6.37824 2.98989 6.65875 2.6224C5.11 3.26469 3.77751 4.33693 2.81875 5.7124H5.1125ZM4.385 10.0874C4.4225 8.99115 4.5575 7.9399 4.775 6.9624H2.0925C1.6264 7.94372 1.34827 9.00367 1.2725 10.0874H4.385ZM6.05875 6.9624C5.81289 7.98716 5.67134 9.03415 5.63625 10.0874H9.375V6.9624H6.05875ZM10.625 6.9624V10.0874H14.3625C14.3279 9.03419 14.1867 7.98719 13.9412 6.9624H10.625ZM5.6375 11.3374C5.67218 12.3906 5.81332 13.4376 6.05875 14.4624H9.375V11.3374H5.6375ZM10.625 11.3374V14.4624H13.9412C14.175 13.5062 14.3238 12.4524 14.3638 11.3374H10.625ZM6.43125 15.7124C6.60375 16.1949 6.8 16.6424 7.01625 17.0474C7.70625 18.3412 8.53875 19.1099 9.375 19.3662V15.7124H6.43125ZM6.65875 18.8024C6.37822 18.4349 6.12861 18.0448 5.9125 17.6362C5.5886 17.0202 5.32085 16.3764 5.1125 15.7124H2.81875C3.77746 17.0879 5.10997 18.1602 6.65875 18.8024V18.8024ZM4.775 14.4624C4.54896 13.435 4.4184 12.3889 4.385 11.3374H1.2725C1.35 12.4499 1.63625 13.5037 2.0925 14.4624H4.775ZM13.3413 18.8024C14.89 18.1602 16.2225 17.0879 17.1812 15.7124H14.8875C14.6791 16.3764 14.4114 17.0202 14.0875 17.6362C13.8714 18.0449 13.6218 18.435 13.3413 18.8024V18.8024ZM10.625 15.7124V19.3662C11.4625 19.1112 12.2938 18.3412 12.9838 17.0474C13.2 16.6424 13.3962 16.1949 13.5687 15.7124H10.625ZM15.225 14.4624H17.9075C18.3638 13.5037 18.65 12.4499 18.7275 11.3374H15.615C15.5816 12.3889 15.4511 13.435 15.225 14.4624ZM18.7275 10.0874C18.6517 9.00367 18.3736 7.94373 17.9075 6.9624H15.225C15.4425 7.9399 15.5775 8.99115 15.615 10.0874H18.7275ZM14.0875 3.78865C14.3963 4.36865 14.665 5.01365 14.8875 5.7124H17.1812C16.2225 4.33688 14.89 3.26463 13.3413 2.6224C13.6138 2.9774 13.8638 3.3699 14.0875 3.78865V3.78865ZM13.5687 5.7124C13.4066 5.25371 13.2111 4.80751 12.9838 4.3774C12.2938 3.08365 11.4625 2.3149 10.625 2.05865V5.7124H13.5687Z" fill="black"/>
</svg>
